<?xml version="1.0" encoding="UTF-8" standalone="no"?>
<svg
   xmlns:dc="http://purl.org/dc/elements/1.1/"
   xmlns:cc="http://creativecommons.org/ns#"
   xmlns:rdf="http://www.w3.org/1999/02/22-rdf-syntax-ns#"
   xmlns:svg="http://www.w3.org/2000/svg"
   xmlns="http://www.w3.org/2000/svg"
   xmlns:sodipodi="http://sodipodi.sourceforge.net/DTD/sodipodi-0.dtd"
   xmlns:inkscape="http://www.inkscape.org/namespaces/inkscape"
   version="1.1"
   x="0px"
   y="0px"
   viewBox="0 0 79.999996 101.68622"
   enable-background="new 0 0 24 24"
   xml:space="preserve"
   id="svg2"
   inkscape:version="0.48.4 r9939"
   width="100%"
   height="100%"
   sodipodi:docname="dxephilly-logo.svg"
   inkscape:export-filename="/home/alex/gleasonator@gmail.com/Projects/DxE Philly/dxephilly-logo.png"
   inkscape:export-xdpi="300"
   inkscape:export-ydpi="300"><metadata
     id="metadata16"><rdf:RDF><cc:Work
         rdf:about=""><dc:format>image/svg+xml</dc:format><dc:type
           rdf:resource="http://purl.org/dc/dcmitype/StillImage" /><dc:title /></cc:Work></rdf:RDF></metadata><defs
     id="defs14" /><sodipodi:namedview
     pagecolor="#ffffff"
     bordercolor="#666666"
     borderopacity="1"
     objecttolerance="10"
     gridtolerance="10"
     guidetolerance="10"
     inkscape:pageopacity="0"
     inkscape:pageshadow="2"
     inkscape:window-width="1278"
     inkscape:window-height="830"
     id="namedview12"
     showgrid="false"
     fit-margin-top="0"
     fit-margin-left="0"
     fit-margin-right="0"
     fit-margin-bottom="0"
     inkscape:zoom="2.5078238"
     inkscape:cx="-18.079479"
     inkscape:cy="51.008919"
     inkscape:window-x="3787"
     inkscape:window-y="237"
     inkscape:window-maximized="0"
     inkscape:current-layer="svg2" /><g
     id="g3007"
     transform="matrix(0.07295526,0,0,0.07295526,-1.0073558e-5,-2.7723024e-4)"><path
       style="fill:#5f5f5f;fill-opacity:1"
       d="m 627.63718,108.02762 c 2.4958,-7.93217 4.14854,-16.190153 4.13678,-24.957813 -0.2381,-46.117471 -37.79548,-83.30287088 -83.91292,-83.06487088 -46.1174,0.23822 -83.30313,37.79529988 -83.06503,83.91276088 -0.0132,11.05207 2.34715,21.617543 6.2749,31.247013 32.46648,-15.541543 89.33413,-32.173133 156.56627,-7.13709 z"
       id="path8"
       inkscape:connector-curvature="0" /><path
       style="fill:#5f5f5f;fill-opacity:1"
       d="m 548.72829,1393.8187 c 54.88546,-0.2513 99.26882,-41.9401 105.11566,-95.1607 l -211.119,1.017 c 6.38495,53.1233 51.17975,94.4126 106.00334,94.1437 z"
       id="path10"
       inkscape:connector-curvature="0" /><path
       sodipodi:nodetypes="ssccscsccs"
       style="fill:#5f5f5f;fill-opacity:1"
       id="path6"
       d="m 559.39058,148.34912 c -11.77524,0.089 -22.26233,-0.0265 -32.15625,0.125 -119.14592,1.82398 -223.00176,62.8231 -282.50001,156.28125 -7.04465,14.61295 -14.31413,29.93951 -14.31413,29.93951 0,0 87.01961,69.22525 122.98906,115.43817 54.63307,70.19161 156.18648,231.04999 196.92814,312.35865 0,0 119.96818,-232.35297 188.54374,-307.3019 40.85288,-44.64972 124.96751,-108.36236 124.96751,-108.36236 0,0 -6.1307,-18.9538 -16.8647,-39.29032 -59.7981,-96.01774 -166.04855,-160.10653 -287.59336,-159.188 z"
       inkscape:connector-curvature="0" /><path
       sodipodi:nodetypes="sccscs"
       style="fill:#5f5f5f;fill-opacity:1"
       id="path6-4"
       d="m 403.11972,997.42681 c -85.88904,109.25039 -166.72539,259.33989 -289.63541,275.92229 142.75097,-0.6005 595.83973,-1.6723 852.18753,-2.8125 -54.4632,-14.2098 -143.7581,-123.2431 -228.72721,-214.2365 C 643.01596,955.71201 550.18564,750.30167 550.18564,750.30167 c 0,0 -97.04028,183.49278 -147.06592,247.12514 z"
       inkscape:connector-curvature="0" /><g
       transform="matrix(1.1724073,0,0,1.1724073,-37.978506,181.29512)"
       id="g3010"><path
         sodipodi:nodetypes="ssssssssscccccccssssssscccsssscssccsccsccssscccsccsccscsssssssscsccsscccscccssscsccc"
         inkscape:connector-curvature="0"
         id="path3014-6"
         transform="matrix(0.8529459,0,0,0.8529459,-139.66157,-199.9162)"
         d="m 1219.5,311.9375 c -9.8433,-0.0227 -34.4086,2.46882 -51,5.21875 -73.1769,12.12868 -144.7369,49.73268 -207.53125,109.0625 -65.35233,61.74665 -122.24173,138.8862 -193.375,262.1875 -9.20707,15.95939 -17.16158,29 -17.6875,29 -0.52593,0 -3.22581,-4.06511 -5.96875,-9.0625 -9.06007,-16.50662 -39.18002,-67.37662 -52.375,-88.4375 C 617.38622,501.51141 549.69457,424.96159 475.59375,375.6875 432.2153,346.84257 390.51479,329.04693 343.71875,319.40625 325.42474,315.63741 289.59752,311.53771 279,312 l -8,0.34375 -0.875,53.34375 c -0.81899,48.54331 -0.76849,487.67266 -0.25,755.3437 -37.05616,41.7385 -68.15625,41.9063 -68.15625,41.9063 l 0.625,164.7187 c 54.46444,-0.9832 86.85714,6.6107 140.96875,-5.9374 113.18795,-23.8983 213.47174,-105.9189 314.9375,-257.5626 26.13125,-39.0539 61.51991,-97.02691 85.09375,-139.4062 2.38701,-4.29117 5.0545,-8.39218 5.9375,-9.125 1.3013,-1.07999 4.11927,3.06736 14.84375,21.875 51.06926,89.5607 99.54856,162.5948 141,212.4375 72.81948,87.5607 145.4683,140.9639 224.25,164.8437 26.9915,8.1816 70.6542,14.7682 90.125,14.4063 21.5138,-0.3998 21.6439,-0.01 78.7812,-0.2813 l -0.7187,-171.2187 c 0,0 -30.7349,-2.8322 -67.9063,-43.515 -0.1287,-1.8305 -0.2801,-0.078 -0.4374,-0.235 -2.0176,-2.0176 -85.4512,-2.0176 -87.4688,0 -1.0566,1.0566 -1.4062,15.9332 -1.4062,59.7813 0,51.3965 -0.2163,58.375 -1.7813,58.375 -5.6294,0 -48.1348,-22.9347 -50.9687,-27.5 -0.9576,-1.5426 -6.1512,-7.9792 -11.5313,-14.3126 -33.0868,-38.9488 -49.8263,-80.413 -57.1563,-141.6562 -2.2483,-18.786 -3.7308,-127.78529 -2.25,-165.59375 l 0.8438,-21.40625 46.5312,0 c 34.6305,0 46.8906,-0.35927 47.9376,-1.40625 2.019,-2.01905 2.019,-88.9497 0,-90.96875 -1.047,-1.04695 -13.2776,-1.40625 -47.875,-1.40625 l -46.5,0 -0.75,-7.9375 c -1.2306,-13.02908 -0.8614,-130.40522 0.4687,-148.96875 5.2218,-72.87528 22.2904,-119.0047 60.8437,-164.375 8.7614,-10.31049 12.8008,-14.05119 19.1876,-17.78125 10.3346,-6.03573 37.9135,-19.3512 42.1874,-20.375 l 3.25,-0.78125 -0.5937,16.84375 c -0.3404,9.26496 -0.9197,42.09054 -1.2813,72.9375 -0.4922,41.99208 -0.31,56.47911 0.7188,57.71875 1.8631,2.24486 85.3605,2.48322 87.5938,0.25 1.535,-1.53501 1.7564,-117.94517 0.375,-200.21875 L 1228.875,312.34375 1221.25,312 c -0.5187,-0.0244 -1.0938,-0.061 -1.75,-0.0625 z M 362.96875,410.125 c 4.58152,-0.49909 47.07693,21.17443 49.90625,25.625 0.64482,1.01432 4.15296,5.18125 7.8125,9.28125 40.46681,45.33732 58.78819,96.45705 62.9375,175.65625 1.59773,30.49642 0.79489,400.0577 -0.90625,417.375 -4.80516,48.9154 -12.55034,77.9963 -29.53125,110.8125 -7.84475,15.1603 -17.11113,28.5766 -31.8125,46.0938 -10.76649,12.8286 -16.00717,16.5954 -39.40625,28.2812 -14.60156,7.2922 -16.54289,7.9915 -17.125,6.1875 -0.96789,-2.9995 -3.17609,-818.3001 -2.21875,-819.21875 0.0663,-0.0636 0.19596,-0.0777 0.34375,-0.0937 z m 572.5,185.40625 c 0.48362,-0.0245 0.875,100.47353 0.875,223.3125 0,122.83897 -0.23286,223.31245 -0.53125,223.31245 -2.14743,0 -41.72782,-64.01661 -67.75,-109.5937 -15.10573,-26.45726 -55.97801,-100.36667 -61.125,-110.53125 l -3.125,-6.1875 15.4375,-27.8125 c 40.79049,-73.47636 68.68077,-120.97431 94.8125,-161.46875 16.24129,-25.16794 20.23689,-30.97204 21.40625,-31.03125 z m -365.1875,8.1875 c 1.82103,0.0575 32.01088,47.51232 54.8125,86.15625 C 647.29047,727.49374 696,814.38789 696,816.34375 c 0,1.21661 -38.03481,70.52588 -58.3125,106.25 -19.839,34.95126 -38.70636,66.66071 -53.34375,89.68745 -5.73851,9.0276 -11.09045,17.1001 -11.90625,17.9376 -1.19638,1.228 -1.62096,-27.5802 -2.25,-148.9063 -1.01579,-195.90733 -0.99142,-277.62798 0.0937,-277.59375 z"
         style="fill:#afb0b2;fill-opacity:1" /><path
         sodipodi:nodetypes="ccsccccccccccccccccsssscccccsccccccssccccssccsccsccssccccsscscccc"
         id="path3014-9"
         d="m 833.80986,148.08951 c 3.03354,-1.14481 0.8397,11.60905 0.75,14.03125 -0.2904,7.90251 -0.7854,35.90796 -1.0938,62.21875 -0.4198,35.81697 -0.2838,48.19265 0.5938,49.25 1.5891,1.91474 72.8451,2.12357 74.75,0.21875 1.1324,-1.13243 1.4237,-75.564 0.7187,-141.0625 -34.00228,-1.80452 -55.50266,1.93624 -75.7187,15.34375 z M 90.559856,132.02701 c -0.6132,108.42618 -1.009824,557.86256 -0.384424,730.23438 11.067158,3.64568 24.628518,5.48108 33.665628,4.17187 16.05288,-1.80471 33.61085,-6.2599 49.125,-17.03125 -0.9172,0.15696 -1.2597,-0.10512 -1.4375,-0.65625 -0.8256,-2.55842 -2.6916,-697.96644 -1.875,-698.75 0.098,-0.0941 0.3227,-0.11903 0.625,-0.0937 -27.43146,-14.26754 -49.75293,-17.20985 -79.718704,-17.875 z m 122.000004,39.4375 c -0.1,0.002 -0.1844,0.0259 -0.2813,0.0312 0.075,0.0881 0.1702,0.17357 0.2188,0.25 0.55,0.86516 3.5661,4.44042 6.6875,7.9375 34.516,38.67028 50.1171,82.25987 53.6562,149.8125 1.3628,26.0118 0.701,341.22931 -0.75,356 -4.0985,41.72222 -10.7037,66.50952 -25.1875,94.5 -6.6911,12.93089 -14.6168,24.40257 -27.1562,39.34375 -1.4432,1.71956 -2.7735,3.23102 -4.0625,4.625 0.9933,1.625 3.9857,2.01215 11.9375,-3.8125 51.59645,-37.76622 101.30185,-92.15861 121.6875,-142.3125 -0.3326,0.46287 -0.5988,0.84555 -0.7188,0.96875 -1.0204,1.04749 -1.4009,-23.51544 -1.9375,-127 -0.8285,-159.78263 -0.8409,-230.48218 -0.031,-236.34375 -27.84296,-54.88729 -82.04552,-106.0831 -120.4375,-137.46875 -4.36501,-2.62951 -8.17363,-6.59089 -13.625,-6.53125 z m 444.625,137.4375 c 0.4993,-0.55348 0.8524,-0.86436 1.0625,-0.875 0.4125,-0.0209 0.75,85.69375 0.75,190.46875 0,104.775 -0.2143,190.5 -0.4688,190.5 -0.1346,0 -0.4749,-0.37493 -0.9375,-0.9375 13.55052,26.20206 32.54737,49.63281 51.625,71.9375 6.24872,8.08647 71.25066,73.81039 76.3125,67.9688 0.1,-0.16138 0.659,-0.90246 1.3438,-1.9375 -1.7518,-2.30629 -5.1541,-6.52253 -8.7188,-10.71875 -28.2213,-33.22123 -42.498,-68.57538 -48.75,-120.8125 -1.9177,-16.02345 -3.1693,-109.00143 -1.9062,-141.25 l 0.7187,-18.25 39.6875,0 c 29.5379,0 40.0132,-0.29448 40.9063,-1.1875 1.7221,-1.72214 1.7221,-75.87161 0,-77.59375 -0.893,-0.89299 -11.3653,-1.21875 -40.875,-1.21875 l -39.6563,0 -0.625,-6.75 c -1.0495,-11.1131 -0.7283,-111.22881 0.4063,-127.0625 4.4539,-62.15867 19.0223,-101.52034 51.9062,-140.21875 2.9722,-3.49771 5.2997,-6.08072 7.375,-8.15625 -53.9115,20.23023 -116.73215,115.63425 -130.1562,136.0937 z m 214.3125,440 c -18.2198,0 -36.4521,0.45205 -37.3125,1.3125 -0.9012,0.9012 -1.1875,13.6 -1.1875,51 0,43.83847 -0.1652,49.78125 -1.5,49.78125 -0.092,0 -0.2299,-0.0173 -0.3438,-0.0312 3.0372,3.39429 26.2774,12.48402 44.8438,15.5625 7.1129,1.17942 29.04277,1.19473 35.34057,0.17656 0.6843,-60.52745 -1.09721,-115.35971 -2.22651,-116.48906 -0.8605,-0.86045 -19.39436,-1.3125 -37.61406,-1.3125 z"
         style="fill:#313133;fill-opacity:1"
         inkscape:connector-curvature="0" /></g></g></svg>