<?xml version="1.0" standalone="no"?>
<!DOCTYPE svg PUBLIC "-//W3C//DTD SVG 20010904//EN"
 "http://www.w3.org/TR/2001/REC-SVG-20010904/DTD/svg10.dtd">
<svg version="1.0" xmlns="http://www.w3.org/2000/svg"
 width="700.000000pt" height="700.000000pt" viewBox="0 0 700.000000 700.000000"
 preserveAspectRatio="xMidYMid meet">
<metadata>
Created by potrace 1.11, written by Peter Selinger 2001-2013
</metadata>
<g transform="translate(0.000000,700.000000) scale(0.100000,-0.100000)"
fill="#000000" stroke="none">
<path d="M3395 6737 c-194 -65 -308 -244 -277 -434 6 -36 15 -70 19 -74 4 -4
52 7 105 25 182 63 385 68 558 16 73 -22 76 -21 86 49 15 100 -32 235 -110
314 -68 71 -158 110 -261 114 -48 2 -96 -2 -120 -10z"/>
<path d="M3247 6050 c-358 -45 -675 -193 -922 -432 -90 -86 -179 -191 -228
-269 l-17 -25 66 -39 c151 -88 377 -275 511 -423 256 -283 425 -521 698 -979
76 -128 141 -233 144 -233 4 0 51 75 106 168 386 652 688 1040 1020 1307 91
73 240 175 256 175 41 0 -100 188 -243 325 -213 206 -471 341 -773 405 -81 17
-143 22 -325 25 -124 2 -256 0 -293 -5z"/>
<path d="M1258 4388 c-1 -441 -2 -1343 -2 -2004 l-1 -1201 56 -12 c30 -6 76
-11 101 -11 58 0 183 32 242 62 l46 24 0 1104 c0 608 -3 1475 -7 1926 l-6 822
-62 25 c-72 30 -177 52 -287 62 l-78 7 -2 -804z"/>
<path d="M5575 5183 c-70 -9 -133 -25 -185 -49 l-57 -25 -6 -211 c-4 -116 -7
-271 -7 -344 0 -122 2 -134 19 -144 21 -11 358 -14 385 -4 14 5 16 49 16 389
l0 383 -22 6 c-24 6 -91 6 -143 -1z"/>
<path d="M1930 4964 c0 -4 22 -32 48 -63 140 -163 218 -345 259 -603 16 -103
18 -201 18 -1123 -1 -1075 -2 -1099 -50 -1291 -39 -155 -108 -293 -216 -429
-43 -55 -48 -65 -31 -65 49 0 356 271 482 425 80 98 165 224 203 303 l32 67
-6 215 c-4 118 -7 571 -8 1006 l-1 791 -56 89 c-82 130 -155 222 -283 357
-105 109 -280 269 -341 310 -24 17 -50 22 -50 11z"/>
<path d="M5001 4930 c-84 -46 -153 -104 -262 -218 -99 -103 -242 -283 -330
-412 l-44 -65 3 -1060 3 -1060 27 -45 c90 -157 233 -326 446 -529 126 -119
190 -171 213 -171 22 0 15 15 -30 72 -141 174 -208 319 -252 548 -20 104 -31
394 -27 738 l3 252 219 0 218 0 7 65 c9 81 3 351 -8 362 -5 4 -104 9 -221 11
l-213 3 -6 182 c-8 227 8 657 27 755 47 231 115 380 249 545 26 31 44 57 40
57 -5 0 -32 -14 -62 -30z"/>
<path d="M3403 2580 c-649 -1111 -1140 -1586 -1808 -1746 l-100 -24 1084 5
c596 3 1483 5 1969 5 487 0 883 3 879 6 -3 3 -45 16 -94 29 -123 32 -193 58
-308 114 -204 100 -373 226 -585 440 -271 271 -483 564 -814 1124 -64 108
-121 197 -126 197 -5 0 -49 -68 -97 -150z"/>
<path d="M5336 1794 c-14 -13 -16 -52 -16 -269 0 -139 -2 -260 -5 -267 -7 -18
63 -52 162 -78 52 -13 109 -20 175 -20 l99 0 -3 315 c-3 268 -5 317 -18 325
-8 5 -97 10 -197 10 -152 0 -184 -3 -197 -16z"/>
<path d="M3010 676 c0 -36 44 -148 78 -202 192 -297 632 -297 823 -1 36 56 60
116 74 185 l7 32 -491 0 c-413 0 -491 -2 -491 -14z"/>
</g>
</svg>
