<?xml version="1.0" standalone="no"?>
<!DOCTYPE svg PUBLIC "-//W3C//DTD SVG 20010904//EN"
 "http://www.w3.org/TR/2001/REC-SVG-20010904/DTD/svg10.dtd">
<svg version="1.0" xmlns="http://www.w3.org/2000/svg"
 width="676.000000pt" height="676.000000pt" viewBox="0 0 676.000000 676.000000"
 preserveAspectRatio="xMidYMid meet">
<metadata>
Created by potrace 1.11, written by Peter Selinger 2001-2013
</metadata>
<g transform="translate(0.000000,676.000000) scale(0.100000,-0.100000)"
fill="#000000" stroke="none">
<path d="M282 6720 c2 -22 0 -40 -4 -40 -4 0 -5 -6 -2 -14 9 -23 10 -146 1
-146 -5 0 -5 -5 -2 -11 4 -6 6 -115 5 -242 -1 -250 -1 -268 4 -310 2 -15 0
-30 -5 -33 -4 -2 -6 -11 -3 -18 8 -21 10 -186 2 -186 -4 0 -5 -6 -2 -14 9 -23
10 -146 1 -146 -5 0 -5 -5 -1 -11 3 -6 6 -84 5 -173 -1 -88 -2 -169 -2 -178 0
-16 -13 -17 -122 -16 l-122 2 -3 -376 -2 -377 663 0 664 0 0 369 c0 204 3 373
6 377 4 3 68 6 143 6 l135 0 -35 36 c-20 20 -36 41 -36 45 0 5 -10 18 -22 30
-30 28 -51 65 -92 151 -29 62 -41 94 -53 145 -10 44 -8 152 4 197 31 119 94
191 210 238 61 25 82 22 198 -30 33 -14 74 -32 90 -40 17 -7 46 -20 65 -28
143 -64 339 -131 440 -151 14 -3 36 -7 50 -11 63 -14 323 -25 333 -15 5 5 14
75 22 180 3 36 7 81 10 100 2 19 7 67 10 105 6 72 14 127 19 132 1 2 29 -34
62 -79 32 -46 61 -85 64 -88 15 -13 167 -252 207 -325 l21 -40 69 1 c37 0 97
4 133 9 36 4 77 9 92 10 14 2 31 5 36 9 5 3 24 8 43 11 37 7 113 29 172 51 20
8 37 11 37 8 0 -4 6 -2 12 3 7 6 31 16 53 23 48 15 141 53 213 86 29 13 54 24
56 24 2 0 20 7 40 15 20 8 39 15 42 14 4 0 10 4 13 9 3 5 29 17 57 25 49 14
54 14 108 -8 58 -23 75 -36 128 -88 71 -70 105 -208 84 -332 -16 -90 -93 -254
-146 -313 -8 -9 -32 -38 -53 -64 l-38 -47 48 1 c26 0 56 0 66 -1 16 -1 17 -26
17 -375 l0 -374 675 0 675 0 1 21 c1 28 1 673 0 707 l-1 25 -125 -2 -125 -2 0
657 c0 361 0 717 0 790 l0 132 -2656 0 -2656 0 4 -40z"/>
<path d="M1723 5182 c-35 -2 -63 -5 -63 -8 0 -19 179 -144 275 -192 64 -32
233 -87 300 -97 121 -19 161 -22 270 -19 66 1 149 6 185 9 36 4 76 8 90 9 71
7 60 -60 -46 -300 -75 -170 -45 -152 -257 -153 -100 -1 -193 -3 -207 -6 -14
-2 -52 -7 -84 -10 -33 -3 -63 -8 -68 -11 -5 -3 -21 -8 -36 -10 -47 -9 -170
-62 -227 -99 -31 -19 -59 -35 -64 -35 -5 0 -11 -3 -13 -7 -1 -5 -25 -26 -53
-48 -190 -152 -318 -356 -375 -600 -17 -71 -33 -146 -36 -165 -3 -19 -8 -44
-11 -55 -8 -23 -9 -27 -16 -75 -4 -19 -16 -80 -27 -135 -11 -55 -23 -111 -25
-125 -6 -32 -12 -62 -25 -125 -6 -27 -12 -61 -15 -75 -3 -14 -10 -50 -16 -80
-6 -30 -12 -59 -13 -65 -1 -5 -5 -16 -9 -22 -18 -29 20 -10 48 23 17 20 39 47
50 60 l21 24 27 -52 c16 -29 33 -60 40 -69 14 -17 47 -33 62 -30 6 2 18 5 28
7 9 2 27 6 40 9 12 3 38 8 57 10 19 2 64 7 100 11 36 4 155 8 265 9 166 1 226
5 295 20 3 0 23 10 45 22 69 37 72 49 40 208 -8 39 -17 84 -20 100 -3 17 -8
44 -11 60 -9 50 -13 69 -18 95 -4 14 -9 50 -12 80 -3 30 -8 58 -9 61 -9 14
-16 103 -8 94 5 -5 29 -57 52 -115 24 -58 49 -118 56 -135 7 -16 48 -115 90
-220 42 -104 82 -203 90 -220 7 -16 28 -66 45 -110 17 -44 38 -93 45 -110 13
-29 24 -57 118 -290 24 -60 48 -119 52 -130 4 -11 7 -23 7 -27 -1 -5 2 -8 8
-8 5 0 10 -6 10 -14 0 -8 22 -65 49 -128 27 -62 81 -192 121 -288 40 -96 76
-182 81 -190 13 -26 39 -88 39 -93 0 -3 13 -34 29 -69 16 -35 41 -92 56 -128
15 -36 38 -87 50 -115 13 -27 42 -91 64 -142 141 -321 274 -582 334 -654 l32
-39 90 5 c224 13 279 16 490 30 80 5 189 14 250 20 147 14 173 17 205 21 19 2
58 6 85 9 28 3 73 9 100 15 28 5 74 12 104 15 30 4 63 9 75 11 12 3 32 7 46
10 14 3 61 14 105 25 44 11 91 22 105 25 14 2 31 7 38 9 25 9 49 -14 60 -57
11 -42 122 -240 152 -270 26 -26 137 -46 187 -33 21 5 24 10 20 34 -3 15 -22
45 -42 67 -45 49 -63 84 -79 154 -12 53 -13 78 -5 165 6 75 -6 78 -136 36
-102 -33 -113 -30 -110 34 1 22 -3 39 -10 41 -7 3 -41 -7 -76 -22 -101 -42
-138 -52 -224 -61 -101 -10 -253 -2 -279 15 -6 3 -18 7 -26 9 -18 2 -93 35
-100 44 -3 3 -15 12 -28 18 -28 15 -33 19 -141 121 l-84 79 -71 -5 c-39 -2
-98 -6 -131 -8 -33 -3 -84 -5 -112 -5 l-53 -1 2 -113 c2 -105 0 -115 -26 -163
-28 -52 -69 -83 -82 -63 -3 6 -8 25 -10 42 -6 51 -25 140 -34 162 -9 21 -22
62 -26 80 -1 6 -11 39 -23 75 -54 168 -44 260 32 298 31 15 29 8 32 127 2 67
9 109 29 166 33 94 32 101 -2 141 -50 59 -70 93 -76 132 -4 21 -9 42 -12 47
-3 5 0 9 7 9 8 0 9 3 0 13 -6 8 -9 16 -7 18 2 2 7 26 11 54 8 66 53 199 79
238 12 18 30 33 40 35 16 3 18 -1 13 -35 -7 -54 -13 -77 -47 -176 -39 -116
-40 -176 -2 -217 20 -23 37 -31 67 -32 37 -2 117 11 140 22 3 1 8 3 13 5 4 1
14 4 22 7 52 20 87 24 190 22 63 -1 138 -4 167 -8 94 -10 256 -19 360 -20 85
-1 105 -4 123 -21 11 -10 46 -71 77 -135 132 -276 205 -422 233 -469 16 -28
27 -51 23 -51 -3 0 1 -8 9 -17 9 -10 17 -22 19 -28 3 -8 50 -89 94 -163 58
-97 157 -208 176 -196 8 5 96 -54 135 -91 6 -5 34 -29 61 -52 28 -24 64 -55
80 -70 17 -16 65 -60 109 -99 43 -40 104 -95 134 -123 30 -28 61 -51 68 -51 6
0 12 -4 12 -8 0 -4 16 -15 36 -24 41 -19 166 -20 184 -2 12 12 -19 48 -119
134 -92 80 -157 147 -199 210 -20 30 -40 57 -44 58 -5 2 -8 7 -8 12 0 5 -18
39 -39 77 -57 100 -58 109 -19 126 80 36 109 37 453 23 114 -5 146 5 195 56
46 47 63 85 56 121 -3 17 -32 67 -65 111 -32 45 -77 117 -101 161 -23 44 -50
88 -59 99 -9 10 -15 20 -13 22 6 10 -89 127 -164 201 -113 110 -166 136 -282
136 -79 0 -178 -6 -332 -19 -272 -23 -433 -7 -620 62 -49 19 -68 31 -77 52
-20 44 -128 375 -173 527 -23 77 -43 145 -44 150 -2 6 -4 13 -5 17 -1 4 -7 22
-12 40 -6 18 -19 67 -30 108 -11 41 -23 82 -26 90 -3 8 -5 19 -4 24 1 4 -3 22
-8 40 -6 17 -13 47 -16 66 -3 19 -10 51 -15 70 -9 36 -36 167 -55 268 -3 15
-10 47 -15 72 -5 25 -12 56 -14 70 -2 14 -11 59 -19 100 -8 41 -18 89 -21 105
-14 69 -17 82 -26 125 -6 25 -12 54 -15 65 -10 47 -44 154 -66 205 -129 305
-469 580 -759 614 -134 16 -300 21 -341 11 l-26 -6 14 -52 c31 -119 36 -218
13 -272 -7 -16 -13 -33 -12 -36 4 -18 -100 -98 -151 -117 -76 -29 -107 -34
-203 -34 -175 1 -304 63 -350 169 -28 67 -28 140 2 273 3 14 7 36 10 50 3 13
6 26 8 27 1 2 131 5 287 8 354 5 355 5 352 31 -1 11 -8 34 -14 50 -7 16 -13
31 -13 34 -1 3 -4 10 -8 15 -14 23 -87 205 -81 205 3 0 1 6 -4 13 -6 6 -10 31
-10 54 -1 44 10 55 46 48 93 -18 356 -26 456 -14 149 18 326 75 454 147 69 38
216 150 208 158 -5 6 -2511 11 -2614 6z"/>
<path d="M1104 2574 c-23 -22 -72 -58 -110 -79 -38 -21 -71 -41 -74 -44 -3 -3
-23 -19 -45 -35 -22 -16 -47 -37 -56 -45 -9 -9 -31 -30 -50 -47 -63 -57 -150
-159 -224 -261 -55 -76 -124 -216 -140 -283 -30 -123 -9 -171 78 -175 33 -2
155 28 185 45 40 24 197 88 203 84 4 -2 -4 -32 -18 -67 -26 -65 -33 -81 -79
-187 -31 -69 -119 -244 -150 -297 -76 -127 -99 -163 -106 -163 -4 0 -8 -5 -8
-10 0 -6 -4 -16 -10 -23 -5 -7 -32 -41 -59 -76 -40 -51 -167 -194 -227 -255
-6 -6 -16 -22 -23 -35 -11 -20 -10 -26 10 -47 32 -34 243 -137 356 -173 112
-36 367 -90 503 -106 25 -3 61 -8 80 -11 19 -3 49 -7 65 -9 109 -12 144 -16
175 -20 19 -2 73 -7 120 -10 47 -4 103 -8 125 -10 138 -12 394 -19 685 -19
l335 -1 -2 120 c-2 124 -8 230 -17 325 -6 53 -8 69 -20 174 -3 25 -8 67 -11
93 -3 27 -12 94 -21 151 -8 57 -17 125 -20 150 -3 26 -7 58 -9 72 -2 14 -7 48
-11 75 -3 28 -8 59 -10 70 -2 10 -6 37 -9 60 -3 22 -15 92 -25 155 -19 112
-24 142 -35 225 -3 22 -7 51 -10 65 -8 36 -14 70 -19 110 -3 19 -7 46 -10 60
-3 14 -8 41 -10 60 -11 74 -35 212 -38 214 -5 3 -63 30 -68 31 -3 1 -31 13
-63 28 -79 36 -117 42 -158 24 -49 -20 -83 -54 -124 -123 -66 -111 -58 -108
-168 -65 -41 16 -85 28 -98 27 -27 -3 -169 -82 -169 -94 0 -4 20 -27 45 -50
46 -43 52 -56 36 -80 -7 -12 -19 -11 -72 3 -96 24 -123 27 -155 15 -24 -9
-190 -129 -230 -165 -6 -5 -23 -19 -38 -30 -16 -11 -44 -33 -64 -48 -36 -28
-85 -57 -97 -57 -3 0 -1 8 5 18 10 18 81 210 84 227 3 15 58 218 64 235 3 8 5
18 4 22 -1 4 3 19 8 33 9 23 18 63 25 105 1 8 5 26 8 40 11 44 16 119 9 122
-4 2 -26 -15 -48 -38z"/>
</g>
</svg>
