<?xml version="1.0" encoding="UTF-8" standalone="no"?>
<svg
   xmlns:dc="http://purl.org/dc/elements/1.1/"
   xmlns:cc="http://creativecommons.org/ns#"
   xmlns:rdf="http://www.w3.org/1999/02/22-rdf-syntax-ns#"
   xmlns:svg="http://www.w3.org/2000/svg"
   xmlns="http://www.w3.org/2000/svg"
   xmlns:sodipodi="http://sodipodi.sourceforge.net/DTD/sodipodi-0.dtd"
   xmlns:inkscape="http://www.inkscape.org/namespaces/inkscape"
   version="1.1"
   x="0px"
   y="0px"
   viewBox="0 0 80.25 92.054001"
   enable-background="new 0 0 100 100"
   xml:space="preserve"
   id="svg2"
   inkscape:version="0.91 r13725"
   sodipodi:docname="calendar-icon.svg"
   width="80.25"
   height="92.054001"><metadata
     id="metadata14"><rdf:RDF><cc:Work
         rdf:about=""><dc:format>image/svg+xml</dc:format><dc:type
           rdf:resource="http://purl.org/dc/dcmitype/StillImage" /><dc:title></dc:title></cc:Work></rdf:RDF></metadata><defs
     id="defs12" /><sodipodi:namedview
     pagecolor="#ffffff"
     bordercolor="#666666"
     borderopacity="1"
     objecttolerance="10"
     gridtolerance="10"
     guidetolerance="10"
     inkscape:pageopacity="0"
     inkscape:pageshadow="2"
     inkscape:window-width="1440"
     inkscape:window-height="837"
     id="namedview10"
     showgrid="false"
     fit-margin-top="0"
     fit-margin-left="0"
     fit-margin-right="0"
     fit-margin-bottom="0"
     inkscape:zoom="1.888"
     inkscape:cx="40.125"
     inkscape:cy="33.527"
     inkscape:window-x="0"
     inkscape:window-y="30"
     inkscape:window-maximized="1"
     inkscape:current-layer="svg2" /><path
     d="M 68.25,7.357 64,7.357 64,0 l -8,0 0,7.357 -32,0 0,-7.357 -8,0 0,7.357 -4,0 c -6.617,0 -12,5.383 -12,12 l 0,60.697 c 0,6.617 5.383,12 12,12 l 56.25,0 c 6.617,0 12,-5.383 12,-12 l 0,-60.697 c 0,-6.617 -5.383,-12 -12,-12 z m 4,72.697 c 0,2.205 -1.794,4 -3,4 l -56.25,0 c -3.206,0 -5,-1.795 -5,-4 l 0,-49 64.25,0 0,49 z m -19.843,-43.265 -10.079,0 0,11.277 10.079,0 0,-11.277 z m 0,31.472 -10.079,0 0,11.277 10.079,0 0,-11.277 z m 0,-15.334 -10.079,0 0,11.277 10.079,0 0,-11.277 z m 14.486,-16.138 -10.08,0 0,11.277 10.079,0 0,-11.277 z m 0,31.472 -10.08,0 0,11.277 10.079,0 0,-11.277 z m 0,-15.334 -10.08,0 0,11.277 10.079,0 0,-11.277 z m -43.457,0 -10.08,0 0,11.277 10.079,0 0,-11.277 z m 0,15.334 -10.08,0 0,11.277 10.079,0 0,-11.277 z m 0,-31.472 -10.08,0 0,11.277 10.079,0 0,-11.277 z m 14.485,16.138 -10.079,0 0,11.277 10.079,0 0,-11.277 z m 0,15.334 -10.079,0 0,11.277 10.079,0 0,-11.277 z m 0,-31.472 -10.079,0 0,11.277 10.079,0 0,-11.277 z"
     id="path4"
     inkscape:connector-curvature="0" /></svg>