<?xml version="1.0" encoding="UTF-8" standalone="no"?>
<svg
   xmlns:dc="http://purl.org/dc/elements/1.1/"
   xmlns:cc="http://creativecommons.org/ns#"
   xmlns:rdf="http://www.w3.org/1999/02/22-rdf-syntax-ns#"
   xmlns:svg="http://www.w3.org/2000/svg"
   xmlns="http://www.w3.org/2000/svg"
   viewBox="0 0 334.8183 337.5"
   height="337.5"
   width="334.8183"
   version="1.1"
   id="svg2">
  <metadata
     id="metadata8">
    <rdf:RDF>
      <cc:Work
         rdf:about="">
        <dc:format>image/svg+xml</dc:format>
        <dc:type
           rdf:resource="http://purl.org/dc/dcmitype/StillImage" />
        <dc:title></dc:title>
      </cc:Work>
    </rdf:RDF>
  </metadata>
  <defs
     id="defs6" />
  <path
     id="path4138"
     d="M 300.38576,327.41964 C 287.94641,315.86686 280,309.36426 280,310.73785 c 0,0.52136 -1.45277,-0.41574 -3.22837,-2.08246 -3.9817,-3.73752 -14.73468,-22.7752 -21.83357,-38.65539 -5.45815,-12.20986 -6.89091,-14.15396 -9.67741,-13.1312 -0.8879,0.32589 -8.90095,-0.0386 -17.80678,-0.81015 -14.50201,-1.25624 -16.78552,-1.17616 -21.8739,0.76711 C 194.8952,260.90631 190.501,256.71964 194.40164,246.17539 197.4794,237.85554 197.97757,235 196.3513,235 194.03741,235 190,245.94819 190,252.22274 c 0,4.45966 0.7138,6.51051 3.1516,9.05504 3.09514,3.23061 3.11522,3.37663 1.12134,8.14868 -1.19511,2.86031 -1.78196,6.71038 -1.42664,9.35953 0.49842,3.71611 0.13964,4.70417 -2.05884,5.6697 -3.85614,1.69355 -3.92574,6.6321 -0.24382,17.29956 1.7635,5.10932 3.20636,10.74207 3.20636,12.51721 0,4.07786 1.85081,4.13036 4.47399,0.12689 1.33522,-2.0378 1.88068,-4.99571 1.59131,-8.6292 l -0.4403,-5.52856 9.375,-0.53803 9.375,-0.53802 4.87201,4.93595 c 2.6796,2.71477 7.1796,5.98392 10,7.26478 7.02168,3.18883 19.6316,3.12127 26.82699,-0.14372 6.7462,-3.06116 6.426,-3.09091 6.426,0.597 0,3.05741 0.0204,3.06236 5.15716,1.25 7.28933,-2.57183 7.76432,-2.40109 6.96819,2.50487 -0.89426,5.51065 0.93026,12.15969 4.13166,15.05693 4.3554,3.94157 3.23303,6.04709 -2.79263,5.23887 -2.90709,-0.38992 -5.47904,-1.28922 -5.71546,-1.99843 -0.2364,-0.70923 -1.78831,-3.29134 -3.44868,-5.73804 -1.66039,-2.44671 -3.36817,-5.84023 -3.79507,-7.54115 -0.91014,-3.62634 -0.4864,-3.57046 -9.25517,-1.22041 -10.87973,2.91578 -31.59668,5.4669 -55.78998,6.87002 l -22.33502,1.29536 -2.32884,-2.83128 c -6.2678,-7.62009 -28.64164,-59.07332 -65.64158,-150.95629 -2.07635,-5.15625 -3.80342,-8.8125 -3.83794,-8.125 -0.0572,1.13905 4.19644,25.12754 5.56471,31.38231 0.91385,4.1775 -7.25132,7.28305 -16.85831,6.41193 -6.96397,-0.63148 -22.61929,0.64937 -27.71849,2.2678 -1.55194,0.49256 -2.7763,-0.47347 -4.27616,-3.37388 l -2.10161,-4.06405 -3.1838,3.68795 c -3.11971,3.61372 -3.16691,3.62504 -2.34495,0.56294 0.46136,-1.71875 2.54197,-12.125 4.62358,-23.125 2.08161,-11 4.64803,-22.96413 5.70315,-26.58695 2.901,-9.96075 11.20063,-21.16471 20.28199,-27.37939 10.18977,-6.97319 17.92745,-9.15866 32.42646,-9.15866 l 11.72946,0 4.36949,-9.45719 c 4.4029,-9.529505 4.96395,-14.043204 1.6436,-13.222955 -0.99042,0.24467 -6.30076,0.736106 -11.80076,1.092081 -15.06782,0.975231 -30.73555,-3.837687 -41.25,-12.671449 l -3.75,-3.15058 67.5,0 67.5,0 -3.75,3.15058 c -10.51445,8.833762 -26.18218,13.64668 -41.25,12.671449 -5.5,-0.355975 -10.81034,-0.847411 -11.80076,-1.092081 -3.24948,-0.80274 -2.83843,3.869136 1.07647,12.235095 2.11712,4.52416 3.84929,8.72508 3.84929,9.33539 0,0.61031 -7.2564,1.10966 -16.12533,1.10966 l -16.12532,0 -1.48768,6.20133 c -3.03582,12.65472 3.61298,19.99377 18.11333,19.99377 14.17056,0 21.23545,-7.48525 18.25112,-19.33706 -0.75686,-3.0058 -1.37612,-5.7785 -1.37612,-6.16156 0,-1.49666 17.39726,-0.59224 23.50654,1.22202 9.87936,2.93386 21.16507,11.32259 27.30671,20.29721 6.17725,9.02666 7.9947,14.67465 12.35962,38.40929 1.77009,9.625 4.64203,23.40625 6.38209,30.625 3.1424,13.03641 13.34321,45.58304 15.13443,48.28775 0.51458,0.77702 5.02827,2.40349 10.0304,3.61436 8.0763,1.95505 11.06416,2.04504 26.68036,0.80359 14.63954,-1.1638 18.15186,-1.10516 20.96586,0.35001 5.8639,3.03234 13.67458,11.60075 17.5213,19.22106 2.04084,4.04288 5.15109,9.06259 6.91165,11.1549 4.03601,4.79653 4.02817,7.10484 -0.038,11.17099 -3.18426,3.18426 -3.44801,3.22463 -15.60306,2.38746 -11.10361,-0.76475 -15.15789,-0.23936 -18.38163,2.38208 -0.19178,0.15596 1.77697,3.96931 4.375,8.47412 3.05844,5.30312 7.25755,10.23536 11.91122,13.99081 3.95312,3.19012 7.1875,6.33182 7.1875,6.98154 0,0.64973 -2.25231,1.18133 -5.00515,1.18133 -4.52914,0 -6.03739,-0.95867 -15.85909,-10.08036 z m -215.5827,-1.2508 C 62.58098,324.87028 41.15119,321.86344 28.96712,318.33444 18.76804,315.38036 7.5,309.59441 7.5,307.31144 c 0,-0.73325 3.08884,-4.42201 6.86408,-8.19725 8.36176,-8.36176 16.85207,-21.73129 23.30359,-36.69574 2.65778,-6.16479 4.83233,-11.457 4.83233,-11.76049 0,-0.3035 -3.51562,1.11136 -7.8125,3.14413 -14.30669,6.76821 -19.47653,4.23977 -15.33249,-7.49873 4.26886,-12.09207 18.18262,-28.08324 29.42554,-33.81895 2.65946,-1.35675 5.41095,-3.45516 6.11441,-4.66312 1.11812,-1.92 1.28237,-1.80318 1.30563,0.92871 0.0373,4.37449 -5.83313,26.93377 -8.68835,33.38846 -1.30441,2.94885 -2.06225,5.36154 -1.68408,5.36154 0.37817,0 5.46319,-3.72906 11.30004,-8.28681 10.51639,-8.21179 10.65511,-8.27403 15.32465,-6.875 5.97267,1.78946 6.29715,1.77345 6.29715,-0.31073 0,-0.94739 -1.21258,-2.52765 -2.69462,-3.5117 -2.66175,-1.76734 -2.63616,-1.82366 2.09787,-4.6168 4.67686,-2.75941 4.90807,-2.77552 9.58237,-0.66771 5.33928,2.40768 5.40129,2.38199 8.31131,-3.44341 1.14294,-2.28799 3.58705,-4.87627 5.43135,-5.75175 2.91913,-1.38569 4.13058,-1.22274 9.35706,1.25863 l 6.00378,2.8504 4.00446,24.36494 c 5.67703,34.54155 9.15363,61.58443 9.49098,73.826 l 0.29044,10.53894 -14.375,0.14572 c -7.90625,0.0801 -22.05737,-0.3032 -31.44694,-0.85188 z M 0,97.5 0,78.75 l 6.25,0 6.25,0 0,-39.375 L 12.5,0 145,0 l 132.5,0 0,39.375 0,39.375 6.25,0 6.25,0 0,18.75 0,18.75 -33.75,0 -33.75,0 0,-18.75 0,-18.75 -3.23611,0 -3.23613,0 3.29586,-3.916912 c 12.21071,-14.511583 11.74383,-31.732713 -1.02454,-37.791701 -4.14737,-1.968055 -4.47293,-1.914781 -13.46212,2.202878 -14.36873,6.581861 -28.43655,10.947638 -37.61271,11.672649 l -8.40075,0.663746 -2.22425,-4.027051 C 153.74348,42.383171 149.11856,35.393664 144.375,29.079416 l -3.75,-4.991692 -1.25,13.268637 -1.25,13.268639 -8.75,-0.1144 C 119.91666,50.386934 108.10359,46.879985 91.41304,39.240817 82.42445,35.126796 82.09801,35.073462 77.95092,37.041387 65.17876,43.102173 64.71206,60.317199 76.92637,74.833088 l 3.29587,3.916912 -6.98612,0 -6.98612,0 0,18.75 0,18.75 -33.125,0 L 0,116.25 0,97.5 Z"
     style="fill:#000000" />
</svg>
